<?xml version="1.0" encoding="UTF-8"?>
<svg width="253px" height="73px" viewBox="0 0 253 73" version="1.1" xmlns="http://www.w3.org/2000/svg" xmlns:xlink="http://www.w3.org/1999/xlink">
    <!-- Generator: Sketch 50.2 (55047) - http://www.bohemiancoding.com/sketch -->
    <title>ButtercreamDreamLogo</title>
    <desc>Created with Sketch.</desc>
    <defs></defs>
    <g id="Page-1" stroke="none" stroke-width="1" fill="none" fill-rule="evenodd">
        <g id="Desktop-Copy" transform="translate(-386.000000, -43.000000)" fill="#F43554" fill-rule="nonzero">
            <g id="ButtercreamDreamLogo" transform="translate(386.000000, 43.000000)">
                <path d="M35.7139288,20.977918 C40.6917552,16.955836 45.5115553,9.93690852 45.5115553,5.20504732 C45.5115553,2.83911672 43.6942536,0 40.0596502,0 C33.3435353,0 25.9163023,7.17665615 21.0965022,15.5362776 C22.5187383,11.829653 24.1780137,8.4384858 25.3632105,5.04731861 C25.5212367,4.88958991 25.5212367,4.10094637 25.5212367,3.70662461 C25.2841974,2.83911672 24.8101187,2.60252366 24.8101187,2.52365931 C24.8101187,3.15457413 21.4125547,9.4637224 21.4125547,9.38485804 C21.649594,7.88643533 24.33604,4.10094637 24.33604,2.28706625 C24.33604,1.81388013 22.992817,1.65615142 23.1508432,1.65615142 C22.4397252,1.65615142 22.2816989,1.10410095 20.6224235,1.10410095 C12.7211118,1.10410095 0,15.615142 0,23.3438486 C0,26.1829653 2.76545909,28.785489 6.47907558,28.785489 C6.71611493,28.785489 6.63710181,28.6277603 6.79512804,28.6277603 C6.87414116,28.6277603 6.95315428,28.785489 7.0321674,28.785489 C7.26920675,28.785489 7.5062461,28.3911672 7.58525921,28.1545741 C7.58525921,27.9968454 7.42723298,27.9179811 7.42723298,27.8391167 C7.34821986,27.7602524 6.40006246,25.7886435 6.40006246,24.6845426 C6.40006246,18.533123 13.5902561,6.23028391 19.7532792,3.78548896 C17.0668332,9.14826498 10.5877577,24.2902208 10.5877577,31.466877 C10.5877577,32.8864353 10.9038101,34.9369085 13.6692692,34.9369085 C13.9063086,34.9369085 13.5902561,34.8580442 14.1433479,34.8580442 C14.3013741,34.8580442 13.9853217,35.1735016 14.6964397,35.1735016 C14.854466,35.2523659 15.565584,35.3312303 15.565584,35.3312303 C15.9606496,35.3312303 16.1976889,35.5678233 16.5137414,35.5678233 L17.3038726,35.5678233 C18.0940037,35.5678233 18.25203,35.0157729 18.25203,34.5425868 C18.25203,34.384858 18.25203,34.2271293 18.1730169,34.0694006 C18.25203,19.4794953 32.0003123,3.47003155 38.4003748,3.47003155 C39.1905059,3.47003155 40.2176765,3.70662461 40.2176765,4.49526814 C40.2176765,7.2555205 30.8941287,16.0094637 25.5212367,19.4794953 C24.5730793,20.1104101 24.0199875,20.5835962 24.0199875,20.977918 C24.0199875,21.0567823 24.0990006,21.0567823 24.2570269,21.2933754 C24.2570269,21.6876972 24.0990006,21.8454259 24.0990006,22.0820189 C24.0990006,22.6340694 24.5730793,22.9495268 24.8101187,22.9495268 C24.9681449,22.9495268 24.9681449,22.7129338 24.9681449,22.7129338 L24.9681449,23.4227129 C24.9681449,23.7381703 25.1261711,23.8170347 25.3632105,23.8170347 C25.6002498,23.8170347 25.9953154,23.659306 26.0743285,23.659306 C26.0743285,23.659306 25.9163023,23.7381703 25.9163023,23.8958991 C25.9163023,23.9747634 25.9163023,24.1324921 26.0743285,24.1324921 C26.3113679,24.1324921 26.6274204,23.9747634 26.9434728,23.9747634 C29.6299188,23.9747634 32.5534041,24.9211356 32.5534041,26.8927445 C32.5534041,37.0662461 15.8816365,44.637224 12.16802,44.637224 C11.7729544,44.637224 11.4569019,44.4794953 11.4569019,44.3217666 C11.4569019,43.4542587 16.3557152,38.8801262 24.4940662,37.7760252 C25.047158,37.7760252 25.4422236,37.2239748 25.4422236,36.6719243 C25.4422236,35.9621451 24.8101187,35.6466877 23.2298563,35.6466877 C17.4618988,35.6466877 8.84946908,37.7760252 8.84946908,42.8233438 C8.84946908,46.5299685 11.3778888,50 15.0124922,50 C27.8916302,48.7381703 40.4547158,38.8801262 40.4547158,26.7350158 C40.4547158,24.5268139 38.1633354,22.555205 35.7139288,20.977918 Z M2.76545909,26.5772871 C1.4222361,25.6309148 0.790131168,24.3690852 0.790131168,22.7917981 C0.790131168,20.977918 1.65927545,18.7697161 3.31855091,16.0883281 C2.05434104,18.6119874 1.4222361,20.8990536 1.4222361,22.7917981 C1.4222361,24.2902208 1.8963148,25.6309148 2.76545909,26.5772871 Z M22.6767645,15.0630915 C22.5187383,15.2208202 22.5187383,15.2996845 22.5187383,15.2996845 C22.5977514,14.9842271 22.7557776,14.6687697 22.992817,14.4321767 C27.1014991,7.64984227 27.8916302,7.17665615 28.2076827,6.94006309 C28.7607745,6.38801262 29.6299188,5.59936909 29.9459713,5.44164038 C27.8916302,7.49211356 24.4940662,11.4353312 22.6767645,15.0630915 Z M30.4990631,6.23028391 C29.3138663,7.41324921 24.1780137,13.9589905 24.2570269,13.9589905 C24.2570269,13.9589905 27.4965646,8.91167192 28.5237352,7.88643533 C28.9188007,7.49211356 29.9459713,6.46687697 30.42005,6.23028391 L30.6570893,5.99369085 C30.6570893,5.99369085 30.6570893,6.07255521 30.4990631,6.23028391 Z M29.5509057,19.0851735 C29.076827,19.4794953 28.7607745,19.637224 28.6817614,19.637224 C28.8397876,19.637224 39.901624,10.4100946 39.901624,9.14826498 C39.901624,9.4637224 35.2398501,14.8264984 29.5509057,19.0851735 Z M24.4940662,42.192429 C26.2323548,41.1671924 28.8397876,38.7223975 30.5780762,36.5930599 C31.9212992,34.9369085 32.6324172,33.3596215 32.6324172,33.4384858 C32.6324172,36.5141956 25.7582761,42.1135647 24.4940662,42.192429 Z M24.4150531,43.6119874 C27.9706433,42.9022082 34.2126796,34.8580442 35.9509681,31.7823344 L36.1880075,31.8611987 L35.871955,32.2555205 C33.5015615,36.5141956 29.1558401,42.2712934 24.33604,43.8485804 C24.33604,43.6908517 24.4150531,43.6119874 24.4150531,43.6119874 Z M27.2595253,44.637224 C26.9434728,44.7160883 26.390381,45.1104101 26.3113679,45.1104101 C26.3113679,45.0315457 26.5484072,44.637224 26.7854466,44.4794953 C31.9212992,41.0883281 35.0028107,37.6971609 37.6102436,32.807571 C37.6892567,32.8864353 37.7682698,33.044164 37.8472829,33.044164 C36.3460337,36.5141956 31.3682074,42.9810726 27.2595253,44.637224 Z M69.0574641,29.9684543 C66.292005,32.5709779 63.4475328,39.4321767 59.4178638,42.0347003 C59.9709557,37.1451104 61.9462836,29.5741325 65.5018738,23.659306 C65.5808869,23.5015773 65.5808869,23.3438486 65.5808869,23.1861199 C65.5808869,21.6876972 62.894441,19.5583596 61.1561524,19.5583596 C60.6030606,19.5583596 60.1289819,19.7949527 59.8919425,20.2681388 L59.7339163,20.5047319 C59.5758901,20.8990536 59.3388507,21.2933754 59.1808245,21.7665615 C56.7314179,27.6025237 51.3585259,40.2208202 47.5658963,40.2208202 C47.328857,40.2208202 47.0128045,40.1419558 47.0128045,39.4321767 C47.0128045,36.829653 50.3313554,27.681388 52.3066833,24.3690852 L52.3066833,23.7381703 C52.3066833,23.5015773 52.3066833,23.2649842 52.3856964,23.0283912 C52.069644,21.6088328 51.2004997,21.2933754 51.2004997,21.214511 C51.2795128,21.214511 50.5683948,20.977918 50.4103685,20.6624606 C49.5412242,22.2397476 46.6177389,29.8895899 46.4597127,29.8895899 C46.4597127,29.1798107 48.7510931,21.4511041 50.2523423,20.3470032 C50.2523423,20.1892744 49.7782636,19.9526814 49.383198,19.637224 C49.383198,19.7949527 49.3041849,19.7949527 49.2251718,19.7949527 C49.2251718,19.7949527 48.4350406,19.2429022 47.9609619,19.2429022 C47.4868832,19.2429022 47.0918176,19.4006309 46.8547783,19.873817 C45.9066209,22.4763407 40.9287945,33.4384858 40.9287945,40.2208202 C40.9287945,42.0347003 43.3782011,45.5047319 46.3016864,45.5047319 C48.9881324,45.5047319 51.6745784,42.3501577 53.8079325,39.1167192 C53.8079325,43.9274448 56.0993129,46.0567823 57.9956277,46.0567823 C65.0277951,46.0567823 71.6648969,28.6277603 71.9019363,28.6277603 C71.9019363,28.3911672 71.7439101,28.3123028 71.5858838,28.3123028 C71.032792,28.3123028 70.0056215,29.022082 69.0574641,29.9684543 Z M57.8376015,39.1167192 C57.7585884,38.8012618 57.6795753,38.4069401 57.6795753,37.9337539 C57.6795753,34.3059937 60.6820737,27.2870662 61.1561524,26.0252366 C61.4722049,25.3943218 61.7092442,25.0788644 61.7882573,25.0788644 C61.7882573,25.0788644 57.8376015,34.7791798 57.8376015,39.1167192 Z M91.1811368,29.9684543 C88.2576515,32.7287066 85.255153,40.4574132 80.8304185,42.5078864 C80.6723923,41.8769716 80.5933791,41.0883281 80.5933791,40.2996845 C80.5933791,34.148265 84.3860087,24.2902208 87.3094941,17.192429 C89.99594,17.192429 92.1292942,17.6656151 92.7613991,17.6656151 C92.9984385,17.6656151 93.1564647,16.7981073 93.1564647,15.7728707 C93.1564647,13.3280757 92.9984385,13.170347 88.9687695,13.170347 C89.3638351,12.3028391 89.6008745,11.2776025 89.6008745,10.4100946 C89.6008745,7.80757098 88.0206121,5.52050473 86.4403498,5.52050473 C85.6502186,5.52050473 84.1489694,7.57097792 81.7785759,13.4069401 L78.6180512,13.5646688 C79.171143,12.2239748 79.4081824,11.5141956 79.4081824,10.4100946 C79.4081824,7.80757098 77.82792,5.52050473 76.2476577,5.52050473 C75.3785134,5.52050473 74.0352904,7.72870662 71.5858838,13.8012618 C69.1364772,13.8012618 67.2401624,13.6435331 66.6870706,12.3028391 C66.6080575,12.0662461 66.4500312,11.9873817 66.292005,11.9873817 C65.8179263,11.9873817 65.3438476,12.8548896 65.3438476,13.6435331 C65.5808869,15.7728707 67.5562149,16.7981073 70.321674,17.3501577 C67.5562149,25 64.8697689,34.7791798 64.8697689,41.5615142 C64.8697689,46.2933754 66.1339788,49.7634069 69.7685821,49.7634069 C73.087133,49.7634069 74.3513429,47.7917981 76.4056839,43.1388013 C77.1958151,44.7949527 78.6180512,45.8990536 80.514366,45.8990536 C81.3044972,45.8990536 82.0156152,45.6624606 82.5687071,45.5047319 C85.8082448,45.5047319 94.025609,29.3375394 94.025609,28.6277603 C94.025609,28.3911672 93.9465959,28.2334385 93.7095565,28.2334385 C93.2354778,28.2334385 92.2083073,28.9432177 91.1811368,29.9684543 Z M67.3981886,32.7287066 C67.9512804,28.2334385 69.2945034,22.9495268 71.4278576,17.2712934 L71.7439101,17.3501577 C69.7685821,23.1861199 68.2673329,28.2334385 67.3981886,32.7287066 Z M75.5365397,38.4858044 C73.7982511,41.3249211 72.6920675,45.1892744 70.1636477,46.4511041 C70.0056215,45.7413249 69.9266084,44.873817 69.9266084,43.9274448 C69.9266084,37.0662461 73.8772642,25.6309148 76.9587758,17.7444795 C77.9859463,17.7444795 79.0921299,17.6656151 80.1193004,17.6656151 C77.5908807,24.5268139 75.5365397,32.5709779 75.5365397,38.4858044 Z M77.5908807,32.7287066 C78.1439725,28.2334385 79.5662086,22.9495268 81.6205497,17.2712934 L81.9366021,17.3501577 C79.9612742,23.1861199 78.460025,28.2334385 77.5908807,32.7287066 Z M108.564022,30.362776 C106.430668,32.2555205 102.16396,41.955836 97.0281074,41.955836 C94.1836352,41.955836 93.3144909,40.1419558 93.3144909,38.0914826 C93.3144909,37.3817035 93.4725172,36.5930599 93.6305434,35.8832808 C94.025609,36.0410095 94.4206746,36.1198738 94.8947533,36.1198738 C99.6355403,36.1198738 106.509681,29.1009464 106.509681,23.8170347 C106.509681,21.214511 104.139288,18.8485804 101.215803,18.8485804 C94.4206746,18.8485804 86.9144285,31.3880126 86.9144285,39.0378549 C86.9144285,42.7444795 90.628045,46.3722397 95.7638976,46.3722397 C102.242973,46.3722397 106.193629,39.1955836 109.51218,33.044164 L110.460337,31.3880126 C111.013429,30.362776 111.329482,29.5741325 111.329482,29.1009464 C111.329482,28.9432177 111.250468,28.785489 111.092442,28.785489 C110.697377,28.785489 109.907245,29.2586751 108.564022,30.362776 Z M97.1071205,33.9905363 C99.3985009,32.2555205 101.057776,29.8895899 102.084947,26.8138801 C101.294816,30.2839117 99.7145534,32.7287066 97.1071205,33.9905363 Z M101.531855,24.2113565 C101.610868,24.3690852 101.689881,24.5268139 101.689881,24.8422713 C101.689881,27.0504732 98.4503435,34.0694006 94.736727,34.0694006 C94.5787008,34.0694006 94.3416615,34.0694006 94.1836352,33.9905363 C94.4996877,32.7287066 98.9244222,23.9747634 101.057776,23.9747634 C101.215803,23.9747634 101.373829,24.0536278 101.531855,24.2113565 Z M91.0231106,29.1798107 C90.4700187,29.7318612 90.1539663,31.3091483 89.99594,31.3091483 C89.99594,29.9684543 91.8132417,26.0252366 95.6848844,22.555205 C95.6848844,23.0283912 91.8922548,27.6025237 91.0231106,29.1798107 Z M93.3144909,28.9432177 C93.3144909,27.2870662 97.7392255,22.8706625 97.8972517,22.8706625 C97.8972517,22.9495268 93.6305434,29.022082 93.3144909,28.9432177 Z M128.001249,20.1104101 C127.290131,19.4794953 126.579013,19.2429022 125.867895,19.2429022 C120.653029,19.2429022 114.33198,32.1766562 113.383823,35.6466877 C114.173954,30.9148265 116.62336,25.7097792 118.12461,22.0820189 C118.203623,21.9242902 118.203623,21.6876972 118.203623,21.5299685 C118.203623,19.873817 115.59619,18.6119874 113.778888,18.6119874 C113.146783,18.6119874 112.593691,18.7697161 112.356652,19.0851735 C111.408495,20.3470032 106.825734,32.1766562 106.825734,39.8264984 C106.825734,43.6119874 107.931918,46.2933754 111.171455,46.2933754 C111.80356,46.2933754 112.277639,45.8990536 112.435665,45.2681388 C113.620862,39.6687697 117.018426,33.3596215 120.653029,27.2870662 C120.574016,27.9179811 120.574016,28.4700315 120.574016,29.022082 C120.574016,33.7539432 121.759213,36.4353312 124.050593,36.4353312 C124.682698,36.4353312 125.156777,36.1198738 125.156777,35.3312303 C125.077764,34.6214511 124.998751,33.9905363 124.998751,33.3596215 C124.998751,27.1293375 128.79138,24.0536278 128.79138,21.6876972 C128.79138,21.1356467 128.554341,20.6624606 128.001249,20.1104101 Z M109.907245,30.9148265 C109.986259,27.3659306 111.250468,23.8958991 113.620862,20.6624606 C111.80356,24.0536278 110.53935,27.5236593 109.907245,30.9148265 Z M121.759213,26.9716088 C121.759213,29.022082 121.759213,30.9148265 122.075265,32.3343849 C121.601187,31.466877 121.285134,30.5205047 121.285134,29.4952681 C121.285134,28.7066246 121.443161,27.8391167 121.759213,26.9716088 Z M147.517489,30.4416404 C145.542161,32.1766562 141.749532,41.955836 136.060587,41.955836 C133.690194,41.955836 132.663023,40.2208202 132.663023,37.8548896 C132.663023,36.6719243 132.900062,35.4100946 133.374141,33.9905363 C134.480325,30.6782334 138.430981,23.9747634 140.248282,23.9747634 C140.643348,23.9747634 140.880387,24.2902208 140.880387,24.9211356 C140.880387,25.9463722 140.090256,27.9968454 138.905059,30.0473186 C138.747033,30.2839117 138.66802,30.5205047 138.66802,30.7570978 C138.66802,31.3091483 139.063086,31.6246057 139.616177,31.6246057 C142.618676,31.6246057 145.463148,24.7634069 145.463148,23.2649842 C145.463148,20.8990536 142.697689,18.8485804 140.327295,18.8485804 C133.137102,18.8485804 126.025921,31.3091483 126.025921,38.5646688 C126.025921,42.4290221 129.581512,46.3722397 134.954403,46.3722397 C141.275453,46.3722397 145.147096,39.2744479 148.386633,33.2018927 L149.334791,31.466877 C149.887883,30.362776 150.282948,29.5741325 150.282948,29.1009464 C150.282948,28.9432177 150.203935,28.785489 150.045909,28.785489 C149.650843,28.785489 148.860712,29.3375394 147.517489,30.4416404 Z M129.976577,30.6782334 C129.818551,31.3091483 129.581512,31.5457413 129.581512,31.5457413 C129.581512,29.7318612 131.477826,26.1041009 134.559338,23.3438486 C134.954403,23.0283912 135.191443,22.7917981 135.270456,22.7917981 C135.033417,22.7917981 131.161774,27.681388 130.529669,29.4164038 C130.450656,29.6529968 130.134603,30.126183 129.976577,30.6782334 Z M131.793879,29.7318612 C131.793879,27.9968454 135.033417,25.3943218 135.033417,25.3943218 C134.006246,26.4195584 132.267958,29.1009464 131.793879,29.7318612 Z M166.717676,20.1104101 C166.006558,19.4794953 165.29544,19.2429022 164.584322,19.2429022 C159.369457,19.2429022 153.048407,32.1766562 152.10025,35.6466877 C152.890381,30.9148265 155.339788,25.7097792 156.841037,22.0820189 C156.92005,21.9242902 156.92005,21.6876972 156.92005,21.5299685 C156.92005,19.873817 154.312617,18.6119874 152.495315,18.6119874 C151.86321,18.6119874 151.310119,18.7697161 151.073079,19.0851735 C150.124922,20.3470032 145.542161,32.1766562 145.542161,39.8264984 C145.542161,43.6119874 146.648345,46.2933754 149.887883,46.2933754 C150.519988,46.2933754 150.994066,45.8990536 151.152092,45.2681388 C152.337289,39.6687697 155.734853,33.3596215 159.369457,27.2870662 C159.290443,27.9179811 159.290443,28.4700315 159.290443,29.022082 C159.290443,33.7539432 160.47564,36.4353312 162.767021,36.4353312 C163.399126,36.4353312 163.873204,36.1198738 163.873204,35.3312303 C163.794191,34.6214511 163.715178,33.9905363 163.715178,33.3596215 C163.715178,27.1293375 167.507808,24.0536278 167.507808,21.6876972 C167.507808,21.1356467 167.270768,20.6624606 166.717676,20.1104101 Z M148.623673,30.9148265 C148.702686,27.3659306 149.966896,23.8958991 152.337289,20.6624606 C150.519988,24.0536278 149.255778,27.5236593 148.623673,30.9148265 Z M160.47564,26.9716088 C160.47564,29.022082 160.47564,30.9148265 160.791693,32.3343849 C160.317614,31.466877 160.001562,30.5205047 160.001562,29.4952681 C160.001562,28.7066246 160.159588,27.8391167 160.47564,26.9716088 Z M186.391943,30.362776 C184.258588,32.2555205 179.99188,41.955836 174.856027,41.955836 C172.011555,41.955836 171.142411,40.1419558 171.142411,38.0914826 C171.142411,37.3817035 171.300437,36.5930599 171.458463,35.8832808 C171.853529,36.0410095 172.248595,36.1198738 172.722673,36.1198738 C177.46346,36.1198738 184.337601,29.1009464 184.337601,23.8170347 C184.337601,21.214511 181.967208,18.8485804 179.043723,18.8485804 C172.248595,18.8485804 164.742349,31.3880126 164.742349,39.0378549 C164.742349,42.7444795 168.455965,46.3722397 173.591818,46.3722397 C180.070893,46.3722397 184.021549,39.1955836 187.3401,33.044164 L188.288257,31.3880126 C188.841349,30.362776 189.157402,29.5741325 189.157402,29.1009464 C189.157402,28.9432177 189.078389,28.785489 188.920362,28.785489 C188.525297,28.785489 187.735166,29.2586751 186.391943,30.362776 Z M174.935041,33.9905363 C177.226421,32.2555205 178.885696,29.8895899 179.912867,26.8138801 C179.122736,30.2839117 177.542473,32.7287066 174.935041,33.9905363 Z M179.359775,24.2113565 C179.438788,24.3690852 179.517801,24.5268139 179.517801,24.8422713 C179.517801,27.0504732 176.278264,34.0694006 172.564647,34.0694006 C172.406621,34.0694006 172.169582,34.0694006 172.011555,33.9905363 C172.327608,32.7287066 176.752342,23.9747634 178.885696,23.9747634 C179.043723,23.9747634 179.201749,24.0536278 179.359775,24.2113565 Z M168.851031,29.1798107 C168.297939,29.7318612 167.981886,31.3091483 167.82386,31.3091483 C167.82386,29.9684543 169.641162,26.0252366 173.512804,22.555205 C173.512804,23.0283912 169.720175,27.6025237 168.851031,29.1798107 Z M171.142411,28.9432177 C171.142411,27.2870662 175.567146,22.8706625 175.725172,22.8706625 C175.725172,22.9495268 171.458463,29.022082 171.142411,28.9432177 Z M212.071205,30.362776 C209.463773,32.8864353 207.093379,39.5899054 203.616802,42.5078864 C203.616802,38.5646688 205.276077,33.5962145 207.330418,29.4952681 C207.409432,29.2586751 207.488445,28.9432177 207.488445,28.7066246 C207.488445,27.0504732 205.355091,25.4731861 203.932854,24.9211356 C203.379763,20.6624606 200.061212,18.6119874 197.295753,18.6119874 C190.974703,18.6119874 184.653654,30.2839117 184.653654,39.3533123 C184.653654,41.7192429 186.07589,46.6088328 190.105559,46.6088328 C192.950031,46.2933754 195.71549,43.6908517 197.611805,41.4826498 C198.006871,43.8485804 199.113054,45.7413249 201.246408,46.3722397 L201.562461,46.5299685 C202.03654,46.6876972 202.510618,46.7665615 202.984697,46.7665615 C203.616802,46.7665615 204.406933,46.6088328 205.118051,46.0567823 C208.515615,43.29653 214.994691,29.6529968 214.994691,29.1009464 C214.994691,28.8643533 214.836665,28.7066246 214.599625,28.7066246 C214.125547,28.7066246 213.098376,29.4164038 212.071205,30.362776 Z M194.767333,23.1072555 C192.792005,25.7886435 190.579638,27.9179811 190.89569,27.9179811 C190.658651,27.9179811 192.396939,25.4731861 192.396939,25.3154574 C193.187071,24.2902208 194.925359,22.7917981 195.083385,22.7917981 C195.083385,22.7917981 195.004372,22.8706625 194.767333,23.1072555 Z M189.947533,27.5236593 C189.710493,27.9179811 189.157402,29.3375394 189.078389,29.4164038 C189.315428,26.2618297 192.1599,23.2649842 193.898189,21.6876972 C193.503123,21.6876972 190.737664,26.1041009 189.947533,27.5236593 Z M198.24391,31.6246057 C198.164897,31.7823344 198.085884,31.9400631 198.085884,32.0977918 C198.085884,32.6498423 198.638976,33.2018927 198.955028,33.3596215 C198.955028,34.7003155 191.527795,42.5078864 190.579638,42.5078864 C190.421611,42.5078864 190.342598,42.2712934 190.342598,41.955836 C190.342598,38.8801262 196.505621,23.659306 198.955028,23.659306 C199.350094,23.659306 199.429107,23.8958991 199.429107,24.7634069 C199.429107,26.5772871 198.876015,30.2050473 198.24391,31.6246057 Z M202.826671,33.8328076 C202.352592,36.0410095 201.325422,39.0378549 201.009369,40.3785489 C200.930356,40.0630915 203.458776,29.8895899 203.458776,29.8895899 C203.616802,29.1009464 204.011868,28.8643533 204.090881,28.8643533 C204.090881,28.8643533 204.090881,28.9432177 204.011868,29.1009464 C204.011868,29.7318612 203.458776,31.7823344 202.826671,33.8328076 Z M249.997502,30.2050473 C247.232042,32.807571 244.308557,39.8264984 240.120862,42.4290221 C240.278888,36.7507886 247.074016,24.8422713 247.074016,22.7129338 C247.074016,20.6624606 244.940662,18.6908517 242.728295,18.6908517 C239.172705,18.6908517 234.589944,24.3690852 230.876327,30.2050473 C232.061524,27.3659306 233.799813,24.1324921 233.799813,22.6340694 C233.799813,20.6624606 231.824485,18.6908517 229.533104,18.6908517 C226.688632,18.6908517 223.054029,22.3974763 219.814491,27.0504732 C220.525609,25.7097792 222.421924,23.0283912 222.421924,22.2397476 C222.421924,21.6088328 221.947845,20.8990536 221.31574,20.1892744 C219.814491,23.0283912 217.76015,27.0504732 217.444097,29.022082 C217.365084,28.8643533 217.365084,28.7066246 217.365084,28.4700315 C217.365084,26.4984227 219.577452,22.6340694 221.157714,20.0315457 C220.130543,19.0063091 218.550281,18.1388013 217.444097,18.1388013 C216.891006,18.1388013 216.416927,18.3753943 216.179888,18.8485804 C210.886009,29.2586751 209.305746,35.8044164 209.305746,39.9053628 C209.305746,44.3217666 211.202061,45.7413249 212.466271,45.7413249 C213.098376,45.7413249 213.493442,45.4258675 213.572455,44.9526814 C217.049032,35.7255521 224.792317,25.2365931 226.13554,24.1324921 C223.133042,31.5457413 222.184884,36.5141956 222.184884,39.8264984 C222.184884,44.4006309 224.160212,45.7413249 225.503435,45.7413249 C226.13554,45.7413249 226.688632,45.3470032 226.688632,44.9526814 C230.323235,35.7255521 238.066521,25.2365931 239.409744,24.1324921 C239.330731,24.2113565 239.330731,24.3690852 239.251718,24.5268139 C238.145534,26.8927445 234.431918,34.9369085 234.431918,40.5362776 C234.431918,44.637224 236.723298,46.4511041 238.461587,46.4511041 C241.543098,46.4511041 245.177701,42.192429 246.757964,39.8264984 C249.760462,35.4100946 253,29.7318612 253,28.8643533 C253,28.6277603 252.841974,28.4700315 252.683948,28.4700315 C252.130856,28.4700315 251.024672,29.1798107 249.997502,30.2050473 Z M226.214553,29.1009464 C225.424422,30.8359621 224.002186,37.5394322 224.002186,40.851735 C223.765147,40.3785489 223.686134,39.7476341 223.686134,38.9589905 C223.686134,34.0694006 226.293567,28.6277603 226.37258,28.6277603 C226.37258,28.6277603 226.37258,28.785489 226.214553,29.1009464 Z M238.224547,31.2302839 C237.671455,32.4921136 236.091193,38.8801262 236.091193,41.3249211 C235.854154,41.0094637 235.696127,40.5362776 235.696127,39.9053628 C235.696127,35.5678233 238.5406,30.8359621 238.382573,30.7570978 C238.382573,30.8359621 238.30356,30.9148265 238.224547,31.2302839 Z" id="Buttercream"></path>
                <path d="M73,72.4361111 C73,72.6305556 73.1574968,72.8055556 73.3543679,72.8055556 L78.158021,72.8055556 C81.9576319,72.8055556 85.0681942,69.7527778 85.0681942,65.9805556 C85.0681942,62.2472222 81.9576319,59.1944444 78.158021,59.1944444 L73.3543679,59.1944444 C73.1574968,59.1944444 73,59.3694444 73,59.5638889 L73,72.4361111 Z M76.0711881,69.9277778 L76.0711881,62.0527778 L77.96115,62.0527778 C80.1857926,62.0527778 81.8001351,63.7833333 81.8001351,65.9805556 C81.8001351,68.1972222 80.1857926,69.9277778 77.96115,69.9277778 L76.0711881,69.9277778 Z M96.2198444,72.4361111 C96.2198444,72.6305556 96.3773412,72.8055556 96.5938993,72.8055556 L98.9366646,72.8055556 C99.1335356,72.8055556 99.3107195,72.6305556 99.3107195,72.4361111 L99.3107195,67.4777778 L100.66913,67.4777778 L103.287514,72.6305556 C103.326889,72.7083333 103.445011,72.8055556 103.602508,72.8055556 L106.220893,72.8055556 C106.555573,72.8055556 106.693383,72.4944444 106.555573,72.2416667 L103.85844,67.3027778 C105.571218,66.6222222 106.772132,65.1833333 106.772132,63.3944444 C106.772132,61.0805556 104.842796,59.1944444 102.480343,59.1944444 L96.5938993,59.1944444 C96.3773412,59.1944444 96.2198444,59.3694444 96.2198444,59.5638889 L96.2198444,72.4361111 Z M99.3107195,65.0083333 L99.3107195,61.975 L102.224411,61.975 C103.031582,61.975 103.720631,62.6361111 103.720631,63.4527778 C103.720631,64.2694444 103.031582,65.0083333 102.224411,65.0083333 L99.3107195,65.0083333 Z M118.160027,72.4361111 C118.160027,72.6305556 118.317524,72.8055556 118.534082,72.8055556 L126.684543,72.8055556 C126.901101,72.8055556 127.058598,72.6305556 127.058598,72.4361111 L127.058598,70.3166667 C127.058598,70.1222222 126.901101,69.9472222 126.684543,69.9472222 L121.231215,69.9472222 L121.231215,67.3222222 L125.719875,67.3222222 C125.916746,67.3222222 126.09393,67.1666667 126.09393,66.9527778 L126.09393,64.8333333 C126.09393,64.6388889 125.916746,64.4638889 125.719875,64.4638889 L121.231215,64.4638889 L121.231215,62.0527778 L126.684543,62.0527778 C126.901101,62.0527778 127.058598,61.8777778 127.058598,61.6833333 L127.058598,59.5638889 C127.058598,59.3694444 126.901101,59.1944444 126.684543,59.1944444 L118.534082,59.1944444 C118.317524,59.1944444 118.160027,59.3694444 118.160027,59.5638889 L118.160027,72.4361111 Z M137.009334,72.8055556 L139.174916,72.8055556 C139.568658,72.8055556 139.785216,72.5722222 139.883652,72.3388889 L140.592387,70.7833333 L145.947279,70.7833333 L146.656015,72.3194444 C146.833199,72.6888889 146.990696,72.8055556 147.345064,72.8055556 L149.530332,72.8055556 C149.825639,72.8055556 149.983135,72.5527778 149.865013,72.3 L143.70295,59.2138889 C143.643888,59.0972222 143.506079,59 143.368269,59 L143.171398,59 C143.033588,59 142.895778,59.0972222 142.836717,59.2138889 L136.674654,72.3 C136.556531,72.5527778 136.714028,72.8055556 137.009334,72.8055556 Z M141.773613,68.1388889 L143.250146,64.9305556 L143.269833,64.9305556 L144.766053,68.1388889 L141.773613,68.1388889 Z M159.362946,72.3777778 C159.323572,72.6305556 159.500756,72.8055556 159.737001,72.8055556 L162.060079,72.8055556 C162.25695,72.8055556 162.414447,72.65 162.434134,72.4944444 L163.300367,66.4861111 L163.339741,66.4861111 L166.666862,72.7861111 C166.725923,72.9027778 166.88342,73 167.001542,73 L167.35591,73 C167.454346,73 167.63153,72.9027778 167.690591,72.7861111 L170.998024,66.4861111 L171.037398,66.4861111 L171.923318,72.4944444 C171.943005,72.65 172.120189,72.8055556 172.297373,72.8055556 L174.620451,72.8055556 C174.856696,72.8055556 175.03388,72.6305556 174.994506,72.3777778 L172.769864,59.3111111 C172.750176,59.1361111 172.572992,59 172.415496,59 L172.100502,59 C172.002067,59 171.824883,59.0777778 171.765821,59.1944444 L167.198413,67.5944444 L167.159039,67.5944444 L162.591631,59.1944444 C162.53257,59.0777778 162.355386,59 162.25695,59 L161.941957,59 C161.78446,59 161.607276,59.1361111 161.587589,59.3111111 L159.362946,72.3777778 Z" id="DREAM"></path>
            </g>
        </g>
    </g>
</svg>